<svg xmlns="http://www.w3.org/2000/svg" xmlns:xlink="http://www.w3.org/1999/xlink" width="1000" zoomAndPan="magnify" viewBox="0 0 750 749.999995" height="1000" preserveAspectRatio="xMidYMid meet" version="1.0"><defs><g/></defs><g fill="rgb(98.81897%, 72.549438%, 49.01886%)" fill-opacity="1"><g transform="translate(163.011266, 631.452512)"><g><path d="M 373.078125 -252.699219 C 371.089844 -254.191406 370.09375 -256.179688 370.09375 -258.667969 C 369.597656 -260.65625 370.09375 -262.648438 371.585938 -264.636719 C 380.042969 -276.574219 386.507812 -289.507812 390.984375 -303.4375 C 394.964844 -317.367188 397.453125 -331.292969 397.453125 -345.71875 C 397.453125 -363.628906 393.472656 -382.03125 386.507812 -399.941406 C 379.046875 -417.847656 368.105469 -433.765625 353.679688 -447.695312 C 339.253906 -461.621094 321.34375 -472.566406 299.957031 -481.519531 C 278.566406 -489.976562 253.691406 -494.453125 225.835938 -494.453125 L 67.152344 -494.453125 C 63.671875 -494.453125 61.183594 -492.960938 60.191406 -489.976562 C 58.699219 -486.992188 59.195312 -484.007812 61.683594 -482.015625 C 70.636719 -472.070312 75.609375 -460.128906 75.609375 -446.699219 L 75.609375 -47.753906 C 75.609375 -33.824219 70.636719 -21.886719 61.683594 -11.9375 C 59.691406 -8.953125 59.691406 -6.464844 61.183594 -3.980469 C 62.179688 -0.996094 64.667969 0 68.148438 0 L 248.222656 0 C 276.078125 0 300.949219 -3.980469 322.339844 -12.4375 C 343.730469 -20.890625 361.636719 -32.332031 376.0625 -46.261719 C 390.488281 -60.191406 401.433594 -75.609375 408.894531 -93.519531 C 415.859375 -110.929688 419.835938 -128.835938 419.835938 -147.738281 C 419.835938 -167.636719 415.359375 -186.539062 407.402344 -204.445312 C 399.441406 -222.355469 388 -238.769531 373.078125 -252.699219 Z M 174.101562 -313.386719 L 174.101562 -378.550781 C 174.101562 -383.027344 175.59375 -387.007812 179.078125 -390.488281 C 182.558594 -393.472656 186.539062 -395.464844 191.511719 -395.464844 L 225.835938 -395.464844 C 238.273438 -395.464844 249.214844 -393.972656 258.667969 -390.984375 C 267.621094 -388 275.582031 -384.519531 281.550781 -380.042969 C 287.519531 -375.066406 291.5 -370.09375 294.484375 -364.125 C 297.46875 -358.15625 298.960938 -351.6875 298.960938 -345.71875 C 298.960938 -333.285156 293.984375 -322.835938 284.535156 -314.378906 C 271.601562 -302.441406 251.703125 -296.472656 225.835938 -296.472656 L 191.511719 -296.472656 C 186.539062 -296.472656 182.558594 -297.964844 179.078125 -301.449219 C 175.59375 -304.433594 174.101562 -308.410156 174.101562 -313.386719 Z M 306.917969 -116.402344 C 293.984375 -104.460938 274.089844 -98.492188 248.222656 -98.492188 L 191.511719 -98.492188 C 186.539062 -98.492188 182.558594 -99.984375 179.078125 -103.46875 C 175.59375 -106.453125 174.101562 -110.929688 174.101562 -115.902344 L 174.101562 -180.570312 C 174.101562 -185.046875 175.59375 -189.027344 179.078125 -192.507812 C 182.558594 -195.992188 186.539062 -197.980469 191.511719 -197.980469 L 248.222656 -197.980469 C 260.65625 -197.980469 271.601562 -196.488281 280.554688 -193.503906 C 289.507812 -190.519531 297.46875 -186.539062 303.4375 -182.0625 C 309.40625 -177.089844 313.882812 -172.113281 316.867188 -166.144531 C 319.851562 -160.175781 321.34375 -153.707031 321.34375 -147.738281 C 321.34375 -135.800781 316.371094 -125.355469 306.917969 -116.402344 Z M 306.917969 -116.402344 "/></g></g></g><g fill="rgb(92.939758%, 84.709167%, 57.249451%)" fill-opacity="1"><g transform="translate(145.178566, 605.984776)"><g><path d="M 373.078125 -252.699219 C 371.089844 -254.191406 370.09375 -256.179688 370.09375 -258.667969 C 369.597656 -260.65625 370.09375 -262.648438 371.585938 -264.636719 C 380.042969 -276.574219 386.507812 -289.507812 390.984375 -303.4375 C 394.964844 -317.367188 397.453125 -331.292969 397.453125 -345.71875 C 397.453125 -363.628906 393.472656 -382.03125 386.507812 -399.941406 C 379.046875 -417.847656 368.105469 -433.765625 353.679688 -447.695312 C 339.253906 -461.621094 321.34375 -472.566406 299.957031 -481.519531 C 278.566406 -489.976562 253.691406 -494.453125 225.835938 -494.453125 L 67.152344 -494.453125 C 63.671875 -494.453125 61.183594 -492.960938 60.191406 -489.976562 C 58.699219 -486.992188 59.195312 -484.007812 61.683594 -482.015625 C 70.636719 -472.070312 75.609375 -460.128906 75.609375 -446.699219 L 75.609375 -47.753906 C 75.609375 -33.824219 70.636719 -21.886719 61.683594 -11.9375 C 59.691406 -8.953125 59.691406 -6.464844 61.183594 -3.980469 C 62.179688 -0.996094 64.667969 0 68.148438 0 L 248.222656 0 C 276.078125 0 300.949219 -3.980469 322.339844 -12.4375 C 343.730469 -20.890625 361.636719 -32.332031 376.0625 -46.261719 C 390.488281 -60.191406 401.433594 -75.609375 408.894531 -93.519531 C 415.859375 -110.929688 419.835938 -128.835938 419.835938 -147.738281 C 419.835938 -167.636719 415.359375 -186.539062 407.402344 -204.445312 C 399.441406 -222.355469 388 -238.769531 373.078125 -252.699219 Z M 174.101562 -313.386719 L 174.101562 -378.550781 C 174.101562 -383.027344 175.59375 -387.007812 179.078125 -390.488281 C 182.558594 -393.472656 186.539062 -395.464844 191.511719 -395.464844 L 225.835938 -395.464844 C 238.273438 -395.464844 249.214844 -393.972656 258.667969 -390.984375 C 267.621094 -388 275.582031 -384.519531 281.550781 -380.042969 C 287.519531 -375.066406 291.5 -370.09375 294.484375 -364.125 C 297.46875 -358.15625 298.960938 -351.6875 298.960938 -345.71875 C 298.960938 -333.285156 293.984375 -322.835938 284.535156 -314.378906 C 271.601562 -302.441406 251.703125 -296.472656 225.835938 -296.472656 L 191.511719 -296.472656 C 186.539062 -296.472656 182.558594 -297.964844 179.078125 -301.449219 C 175.59375 -304.433594 174.101562 -308.410156 174.101562 -313.386719 Z M 306.917969 -116.402344 C 293.984375 -104.460938 274.089844 -98.492188 248.222656 -98.492188 L 191.511719 -98.492188 C 186.539062 -98.492188 182.558594 -99.984375 179.078125 -103.46875 C 175.59375 -106.453125 174.101562 -110.929688 174.101562 -115.902344 L 174.101562 -180.570312 C 174.101562 -185.046875 175.59375 -189.027344 179.078125 -192.507812 C 182.558594 -195.992188 186.539062 -197.980469 191.511719 -197.980469 L 248.222656 -197.980469 C 260.65625 -197.980469 271.601562 -196.488281 280.554688 -193.503906 C 289.507812 -190.519531 297.46875 -186.539062 303.4375 -182.0625 C 309.40625 -177.089844 313.882812 -172.113281 316.867188 -166.144531 C 319.851562 -160.175781 321.34375 -153.707031 321.34375 -147.738281 C 321.34375 -135.800781 316.371094 -125.355469 306.917969 -116.402344 Z M 306.917969 -116.402344 "/></g></g></g></svg>