<svg xmlns="http://www.w3.org/2000/svg" xmlns:xlink="http://www.w3.org/1999/xlink" width="1000" zoomAndPan="magnify" viewBox="0 0 750 154.499995" height="206" preserveAspectRatio="xMidYMid meet" version="1.0"><defs><g/></defs><g fill="rgb(98.81897%, 72.549438%, 49.01886%)" fill-opacity="1"><g transform="translate(38.893516, 102.049763)"><g><path d="M 54.007812 -30.621094 C 53.75 -30.847656 53.632812 -31.132812 53.660156 -31.472656 C 53.617188 -31.75 53.707031 -32.019531 53.933594 -32.277344 C 55.222656 -33.824219 56.253906 -35.527344 57.023438 -37.394531 C 57.71875 -39.261719 58.214844 -41.148438 58.371094 -43.128906 C 58.570312 -45.589844 58.222656 -48.160156 57.464844 -50.695312 C 56.636719 -53.238281 55.304688 -55.542969 53.476562 -57.613281 C 51.648438 -59.683594 49.308594 -61.382812 46.46875 -62.847656 C 43.625 -64.242188 40.257812 -65.128906 36.429688 -65.4375 L 14.636719 -67.171875 C 14.160156 -67.210938 13.800781 -67.035156 13.632812 -66.632812 C 13.394531 -66.242188 13.429688 -65.824219 13.75 -65.523438 C 14.871094 -64.0625 15.421875 -62.367188 15.277344 -60.523438 L 10.90625 -5.730469 C 10.753906 -3.816406 9.941406 -2.234375 8.601562 -0.964844 C 8.296875 -0.574219 8.269531 -0.234375 8.445312 0.125 C 8.550781 0.542969 8.882812 0.707031 9.359375 0.746094 L 34.089844 2.71875 C 37.917969 3.023438 41.375 2.75 44.40625 1.820312 C 47.4375 0.894531 50.023438 -0.480469 52.15625 -2.234375 C 54.289062 -3.988281 55.960938 -5.988281 57.183594 -8.367188 C 58.328125 -10.679688 59.070312 -13.097656 59.277344 -15.691406 C 59.496094 -18.425781 59.089844 -21.070312 58.191406 -23.617188 C 57.296875 -26.164062 55.902344 -28.542969 54.007812 -30.621094 Z M 27.34375 -41.132812 L 28.058594 -50.082031 C 28.105469 -50.699219 28.355469 -51.230469 28.871094 -51.667969 C 29.382812 -52.039062 29.949219 -52.269531 30.632812 -52.214844 L 35.347656 -51.839844 C 37.054688 -51.703125 38.542969 -51.378906 39.808594 -50.867188 C 41.003906 -50.359375 42.058594 -49.792969 42.832031 -49.113281 C 43.59375 -48.363281 44.085938 -47.636719 44.433594 -46.785156 C 44.777344 -45.933594 44.910156 -45.027344 44.84375 -44.207031 C 44.710938 -42.5 43.910156 -41.121094 42.519531 -40.0625 C 40.613281 -38.5625 37.816406 -37.960938 34.261719 -38.246094 L 29.550781 -38.621094 C 28.867188 -38.675781 28.335938 -38.921875 27.894531 -39.441406 C 27.449219 -39.886719 27.289062 -40.449219 27.34375 -41.132812 Z M 43.425781 -12.625 C 41.519531 -11.128906 38.722656 -10.527344 35.167969 -10.808594 L 27.382812 -11.429688 C 26.699219 -11.484375 26.167969 -11.734375 25.726562 -12.25 C 25.28125 -12.695312 25.125 -13.328125 25.179688 -14.011719 L 25.890625 -22.894531 C 25.9375 -23.507812 26.1875 -24.039062 26.703125 -24.476562 C 27.21875 -24.917969 27.789062 -25.148438 28.472656 -25.09375 L 36.257812 -24.472656 C 37.96875 -24.335938 39.453125 -24.011719 40.652344 -23.503906 C 41.847656 -22.996094 42.898438 -22.363281 43.667969 -21.679688 C 44.433594 -20.933594 44.992188 -20.199219 45.339844 -19.347656 C 45.683594 -18.496094 45.816406 -17.589844 45.75 -16.773438 C 45.621094 -15.132812 44.824219 -13.75 43.425781 -12.625 Z M 43.425781 -12.625 "/></g></g></g><g fill="rgb(98.81897%, 72.549438%, 49.01886%)" fill-opacity="1"><g transform="translate(102.681486, 107.100928)"><g><path d="M 50.691406 -11.929688 L 49.828125 -11.296875 C 49.03125 -10.660156 48.191406 -10.441406 47.304688 -10.496094 L 26.101562 -11.855469 C 25.621094 -11.886719 25.222656 -12.050781 24.964844 -12.339844 C 24.640625 -12.636719 24.53125 -13.054688 24.566406 -13.601562 L 27.5625 -60.386719 C 27.664062 -61.957031 28.304688 -63.359375 29.476562 -64.519531 L 29.546875 -64.585938 C 29.777344 -64.914062 29.796875 -65.253906 29.6875 -65.675781 C 29.503906 -66.03125 29.175781 -66.257812 28.765625 -66.285156 L 13.648438 -67.253906 C 13.171875 -67.28125 12.816406 -67.097656 12.65625 -66.765625 C 12.425781 -66.367188 12.402344 -66.027344 12.65625 -65.667969 C 13.671875 -64.367188 14.125 -62.894531 14.023438 -61.320312 L 10.152344 -0.859375 C 10.121094 -0.382812 10.230469 0.0390625 10.554688 0.332031 C 10.804688 0.691406 11.207031 0.855469 11.6875 0.886719 L 46.429688 3.113281 C 47.320312 3.167969 48.121094 3.5625 48.832031 4.226562 L 49.609375 4.964844 C 49.933594 5.261719 50.277344 5.28125 50.699219 5.101562 C 51.050781 4.988281 51.277344 4.660156 51.308594 4.179688 L 52.277344 -10.933594 C 52.304688 -11.34375 52.121094 -11.699219 51.789062 -11.925781 C 51.390625 -12.089844 51.046875 -12.113281 50.691406 -11.929688 Z M 50.691406 -11.929688 "/></g></g></g><g fill="rgb(98.81897%, 72.549438%, 49.01886%)" fill-opacity="1"><g transform="translate(158.877492, 110.727357)"><g><path d="M 54.53125 -54.859375 C 52.09375 -58.40625 49.140625 -61.15625 45.808594 -63.171875 C 42.402344 -65.121094 38.820312 -66.253906 34.988281 -66.441406 C 31.152344 -66.625 27.410156 -65.847656 23.832031 -64.238281 C 20.253906 -62.558594 17.113281 -60.101562 14.347656 -56.804688 C 11.726562 -53.707031 9.703125 -50.167969 8.277344 -46.257812 C 6.785156 -42.351562 5.964844 -38.136719 5.75 -33.753906 C 5.539062 -29.375 5.949219 -25.101562 7.058594 -21.066406 C 8.09375 -16.96875 9.769531 -13.320312 12.082031 -10.050781 C 14.519531 -6.5 17.402344 -3.6875 20.804688 -1.738281 C 24.207031 0.28125 27.859375 1.347656 31.695312 1.535156 C 35.527344 1.722656 39.199219 1.007812 42.78125 -0.671875 C 46.289062 -2.285156 49.5 -4.808594 52.265625 -8.105469 C 54.882812 -11.132812 56.902344 -14.605469 58.398438 -18.578125 C 59.824219 -22.488281 60.714844 -26.703125 60.925781 -31.082031 C 61.140625 -35.464844 60.660156 -39.742188 59.621094 -43.769531 C 58.511719 -47.804688 56.839844 -51.523438 54.53125 -54.859375 Z M 32.351562 -12.019531 C 30.433594 -12.113281 28.613281 -12.75 27.023438 -13.925781 C 25.363281 -15.101562 23.929688 -16.613281 22.785156 -18.519531 C 21.574219 -20.433594 20.652344 -22.671875 20.019531 -25.171875 C 19.386719 -27.671875 19.171875 -30.292969 19.304688 -33.097656 C 19.4375 -35.835938 19.910156 -38.488281 20.78125 -40.917969 C 21.65625 -43.34375 22.785156 -45.417969 24.179688 -47.273438 C 25.5 -49.058594 27.078125 -50.492188 28.84375 -51.503906 C 30.539062 -52.523438 32.414062 -52.980469 34.332031 -52.886719 C 36.246094 -52.792969 38 -52.160156 39.660156 -50.980469 C 41.25 -49.808594 42.683594 -48.226562 43.824219 -46.320312 C 44.964844 -44.34375 45.886719 -42.171875 46.523438 -39.671875 C 47.15625 -37.171875 47.4375 -34.480469 47.304688 -31.742188 C 47.167969 -28.9375 46.632812 -26.355469 45.757812 -23.925781 C 44.886719 -21.5 43.753906 -19.359375 42.433594 -17.570312 C 41.109375 -15.78125 39.535156 -14.414062 37.839844 -13.398438 C 36.074219 -12.386719 34.269531 -11.925781 32.351562 -12.019531 Z M 32.351562 -12.019531 "/></g></g></g><g fill="rgb(98.81897%, 72.549438%, 49.01886%)" fill-opacity="1"><g transform="translate(222.971952, 113.825995)"><g><path d="M 56.558594 0.425781 L 55.554688 -0.429688 C 55.152344 -0.648438 54.753906 -1.070312 54.359375 -1.632812 C 53.898438 -2.195312 53.507812 -2.824219 53.113281 -3.453125 C 52.589844 -4.15625 52.128906 -4.855469 51.675781 -5.695312 C 51.417969 -6.113281 51.292969 -6.527344 51.308594 -7.078125 C 51.328125 -7.625 51.546875 -8.097656 51.902344 -8.5 L 52.117188 -8.695312 C 54.683594 -11.769531 56.648438 -15.339844 58.074219 -19.273438 C 59.433594 -23.207031 60.253906 -27.433594 60.394531 -31.886719 C 60.535156 -36.269531 59.984375 -40.539062 58.878906 -44.550781 C 57.703125 -48.566406 55.96875 -52.253906 53.601562 -55.484375 C 51.109375 -58.992188 48.109375 -61.691406 44.742188 -63.652344 C 41.308594 -65.609375 37.707031 -66.6875 33.871094 -66.808594 C 30.035156 -66.929688 26.304688 -66.089844 22.753906 -64.351562 C 19.203125 -62.609375 16.105469 -60.105469 13.394531 -56.761719 C 10.828125 -53.6875 8.863281 -50.117188 7.503906 -46.183594 C 6.074219 -42.25 5.324219 -38.023438 5.183594 -33.640625 C 5.042969 -29.1875 5.523438 -24.921875 6.699219 -20.90625 C 7.804688 -16.894531 9.539062 -13.203125 11.90625 -9.976562 C 14.398438 -6.46875 17.332031 -3.769531 20.765625 -1.808594 C 24.199219 0.152344 27.871094 1.160156 31.707031 1.28125 C 33.96875 1.355469 36.238281 1.082031 38.589844 0.472656 C 39.144531 0.285156 39.550781 0.433594 39.875 0.992188 C 40.070312 1.410156 40.40625 1.558594 40.886719 1.574219 L 56.160156 2.058594 C 56.644531 2.007812 56.925781 1.808594 57.003906 1.402344 C 57.015625 1.058594 56.890625 0.710938 56.558594 0.425781 Z M 43.714844 -20.484375 C 43.570312 -20.351562 43.5 -20.285156 43.363281 -20.289062 C 43.226562 -20.292969 43.160156 -20.363281 43.097656 -20.503906 C 42.574219 -21.273438 41.902344 -21.777344 41.085938 -22.007812 C 40.273438 -22.238281 39.445312 -22.128906 38.675781 -21.671875 L 32.527344 -18.097656 C 31.691406 -17.574219 31.1875 -16.90625 30.957031 -16.089844 C 30.726562 -15.273438 30.835938 -14.449219 31.359375 -13.675781 L 31.816406 -12.910156 C 31.671875 -12.707031 31.597656 -12.574219 31.597656 -12.574219 C 31.597656 -12.574219 31.527344 -12.4375 31.453125 -12.300781 C 29.609375 -12.5 27.914062 -13.167969 26.308594 -14.386719 C 24.699219 -15.535156 23.378906 -17.085938 22.203125 -18.972656 C 21.027344 -20.863281 20.136719 -23.015625 19.53125 -25.503906 C 18.921875 -27.921875 18.660156 -30.46875 18.746094 -33.210938 C 18.832031 -35.949219 19.261719 -38.609375 20.09375 -41.050781 C 20.925781 -43.492188 22.019531 -45.585938 23.378906 -47.394531 C 24.671875 -49.203125 26.226562 -50.664062 27.976562 -51.703125 C 29.652344 -52.746094 31.519531 -53.238281 33.4375 -53.175781 C 35.355469 -53.113281 37.121094 -52.511719 38.796875 -51.359375 C 40.40625 -50.210938 41.867188 -48.65625 43.039062 -46.769531 C 44.214844 -44.878906 45.175781 -42.722656 45.851562 -40.234375 C 46.523438 -37.742188 46.851562 -35.058594 46.765625 -32.320312 C 46.695312 -30.125 46.351562 -28.011719 45.878906 -26.039062 C 45.332031 -24 44.589844 -22.171875 43.714844 -20.484375 Z M 43.714844 -20.484375 "/></g></g></g><g fill="rgb(98.81897%, 72.549438%, 49.01886%)" fill-opacity="1"><g transform="translate(287.101132, 115.853136)"><g><path d="M 57.117188 -50.394531 L 56.78125 -50.808594 C 55.835938 -51.785156 55.234375 -52.890625 54.84375 -54.128906 C 53.667969 -57.988281 51.183594 -61.175781 47.519531 -63.703125 C 45.484375 -65.035156 43.167969 -66.097656 40.574219 -66.824219 C 37.980469 -67.550781 35.316406 -67.933594 32.4375 -67.976562 C 29.558594 -68.019531 26.742188 -67.652344 24.058594 -67.007812 C 21.375 -66.363281 18.960938 -65.375 16.816406 -64.105469 C 13.914062 -62.367188 11.753906 -60.273438 10.207031 -57.761719 C 8.664062 -55.25 7.933594 -52.519531 7.886719 -49.503906 C 7.800781 -43.75 10.398438 -38.773438 15.816406 -34.644531 C 17.710938 -33.109375 19.75 -31.84375 21.996094 -30.710938 C 24.238281 -29.582031 26.550781 -28.449219 28.867188 -27.453125 C 30.226562 -26.746094 31.722656 -26.039062 33.222656 -25.332031 C 34.71875 -24.621094 36.078125 -23.847656 37.300781 -23.144531 C 38.523438 -22.371094 39.539062 -21.601562 40.347656 -20.835938 C 41.160156 -20 41.558594 -19.238281 41.546875 -18.484375 C 41.53125 -17.527344 41.175781 -16.640625 40.480469 -15.964844 C 39.785156 -15.292969 38.882812 -14.6875 37.851562 -14.292969 C 36.816406 -13.898438 35.714844 -13.570312 34.476562 -13.386719 C 33.238281 -13.128906 32.140625 -13.078125 31.046875 -13.09375 C 29.675781 -13.117188 28.308594 -13.273438 26.804688 -13.640625 C 25.300781 -13.9375 24.007812 -14.503906 22.992188 -15.273438 C 22.71875 -15.484375 22.519531 -15.761719 22.523438 -16.105469 C 22.460938 -16.449219 22.535156 -16.722656 22.8125 -16.992188 L 22.882812 -17.058594 C 23.09375 -17.398438 23.097656 -17.742188 22.964844 -18.152344 C 22.765625 -18.570312 22.429688 -18.78125 22.015625 -18.785156 L 6.871094 -19.019531 C 6.390625 -19.027344 6.046875 -18.824219 5.902344 -18.417969 C 5.691406 -18.007812 5.6875 -17.664062 5.953125 -17.320312 L 6.226562 -17.039062 C 7.167969 -15.929688 7.765625 -14.753906 8.160156 -13.582031 C 9.332031 -9.589844 11.75 -6.398438 15.550781 -3.941406 C 17.585938 -2.539062 19.96875 -1.476562 22.5625 -0.75 C 25.15625 0.0429688 27.960938 0.429688 30.835938 0.472656 C 34.265625 0.527344 37.492188 0.0976562 40.453125 -0.816406 C 43.414062 -1.734375 45.96875 -2.996094 48.121094 -4.675781 C 50.269531 -6.289062 51.945312 -8.320312 53.214844 -10.628906 C 54.417969 -12.941406 55.074219 -15.46875 55.117188 -18.277344 C 55.160156 -21.222656 54.515625 -23.839844 53.246094 -26.050781 C 51.980469 -28.265625 50.363281 -30.207031 48.332031 -31.882812 C 46.300781 -33.5625 44.128906 -34.964844 41.683594 -36.238281 C 39.234375 -37.507812 36.851562 -38.640625 34.539062 -39.773438 C 32.972656 -40.484375 31.410156 -41.191406 29.84375 -41.96875 C 28.277344 -42.679688 26.851562 -43.457031 25.628906 -44.296875 C 24.40625 -45.070312 23.394531 -45.90625 22.582031 -46.742188 C 21.773438 -47.578125 21.441406 -48.40625 21.457031 -49.296875 C 21.46875 -50.050781 21.753906 -50.730469 22.449219 -51.40625 C 23.078125 -52.082031 23.90625 -52.617188 24.941406 -53.082031 C 25.90625 -53.476562 27.078125 -53.800781 28.382812 -54.054688 C 29.621094 -54.3125 30.925781 -54.429688 32.226562 -54.410156 C 33.734375 -54.386719 35.242188 -54.15625 36.605469 -53.863281 C 37.972656 -53.496094 39.0625 -53 40.011719 -52.371094 C 40.28125 -52.160156 40.484375 -51.882812 40.476562 -51.539062 C 40.472656 -51.199219 40.398438 -50.925781 40.191406 -50.722656 L 40.191406 -50.652344 C 39.910156 -50.246094 39.90625 -49.902344 40.105469 -49.558594 C 40.234375 -49.144531 40.578125 -49.003906 41.054688 -48.996094 L 56.199219 -48.761719 C 56.613281 -48.757812 56.957031 -48.886719 57.167969 -49.296875 C 57.3125 -49.636719 57.316406 -49.980469 57.117188 -50.394531 Z M 57.117188 -50.394531 "/></g></g></g><g fill="rgb(98.81897%, 72.549438%, 49.01886%)" fill-opacity="1"><g transform="translate(349.840933, 116.835647)"><g><path d="M 59.554688 -1.8125 L 59.417969 -1.882812 C 58.320312 -3.042969 57.835938 -4.414062 57.832031 -6.058594 L 57.738281 -62.257812 C 57.738281 -63.835938 58.214844 -65.207031 59.308594 -66.441406 L 59.445312 -66.511719 C 59.652344 -66.851562 59.652344 -67.195312 59.445312 -67.605469 C 59.238281 -68.019531 58.964844 -68.222656 58.550781 -68.222656 L 43.335938 -68.195312 C 42.925781 -68.195312 42.585938 -67.988281 42.378906 -67.578125 C 42.175781 -67.167969 42.175781 -66.824219 42.449219 -66.480469 L 42.519531 -66.480469 C 43.617188 -65.25 44.167969 -63.8125 44.171875 -62.304688 L 44.203125 -43.183594 C 44.203125 -42.496094 43.929688 -41.949219 43.519531 -41.535156 C 43.039062 -41.125 42.492188 -40.917969 41.875 -40.917969 L 25.976562 -40.890625 C 25.289062 -40.890625 24.742188 -41.09375 24.328125 -41.503906 C 23.847656 -41.914062 23.640625 -42.464844 23.640625 -43.148438 L 23.609375 -62.339844 C 23.605469 -63.847656 24.152344 -65.21875 25.246094 -66.453125 C 25.453125 -66.796875 25.453125 -67.140625 25.3125 -67.550781 C 25.109375 -67.960938 24.765625 -68.164062 24.351562 -68.164062 L 9.207031 -68.140625 C 8.726562 -68.140625 8.386719 -67.933594 8.25 -67.519531 C 8.042969 -67.109375 8.042969 -66.765625 8.320312 -66.425781 L 8.457031 -66.289062 C 9.484375 -65.125 10.035156 -63.753906 10.039062 -62.179688 L 10.132812 -6.046875 C 10.136719 -4.402344 9.589844 -2.964844 8.5625 -1.863281 L 8.425781 -1.726562 C 8.152344 -1.316406 8.152344 -0.972656 8.359375 -0.5625 C 8.5 -0.152344 8.839844 -0.015625 9.320312 -0.015625 L 10.144531 -0.015625 L 23.714844 -0.0390625 L 24.46875 -0.0390625 C 24.878906 -0.0429688 25.222656 -0.179688 25.425781 -0.589844 C 25.5625 -1.003906 25.5625 -1.34375 25.355469 -1.753906 C 24.257812 -2.988281 23.707031 -4.355469 23.703125 -5.933594 L 23.671875 -25.054688 C 23.671875 -25.671875 23.875 -26.21875 24.355469 -26.632812 C 24.765625 -27.042969 25.3125 -27.320312 25.996094 -27.320312 L 41.898438 -27.347656 C 42.515625 -27.347656 43.0625 -27.074219 43.542969 -26.664062 C 43.957031 -26.253906 44.230469 -25.707031 44.230469 -25.089844 L 44.265625 -5.96875 C 44.265625 -4.390625 43.71875 -3.019531 42.625 -1.851562 L 42.558594 -1.785156 C 42.285156 -1.371094 42.285156 -1.03125 42.492188 -0.621094 C 42.699219 -0.207031 43.039062 -0.0703125 43.453125 -0.0742188 L 44.273438 -0.0742188 L 57.84375 -0.0976562 L 58.667969 -0.0976562 C 59.078125 -0.0976562 59.351562 -0.234375 59.554688 -0.648438 C 59.761719 -1.058594 59.761719 -1.402344 59.554688 -1.8125 Z M 59.554688 -1.8125 "/></g></g></g><g fill="rgb(98.81897%, 72.549438%, 49.01886%)" fill-opacity="1"><g transform="translate(418.58471, 116.714793)"><g><path d="M 57.398438 -69.1875 L 42.253906 -68.890625 C 41.773438 -68.882812 41.4375 -68.671875 41.304688 -68.324219 C 41.109375 -67.910156 41.113281 -67.566406 41.394531 -67.230469 C 42.515625 -65.949219 43.160156 -64.523438 43.191406 -62.945312 L 43.972656 -23 C 44.011719 -20.875 43.496094 -19.21875 42.558594 -18.105469 C 41.621094 -16.921875 40.542969 -16.078125 39.320312 -15.503906 C 38.097656 -14.933594 36.9375 -14.566406 35.84375 -14.410156 C 34.75 -14.25 34.066406 -14.238281 33.792969 -14.230469 C 33.515625 -14.226562 32.761719 -14.210938 31.664062 -14.328125 C 30.566406 -14.441406 29.394531 -14.761719 28.148438 -15.285156 C 26.90625 -15.8125 25.792969 -16.613281 24.8125 -17.757812 C 23.832031 -18.835938 23.320312 -20.46875 23.277344 -22.59375 L 22.5 -62.542969 C 22.464844 -64.1875 22.988281 -65.636719 24.058594 -66.890625 C 24.257812 -67.238281 24.25 -67.582031 24.105469 -67.988281 C 23.894531 -68.328125 23.546875 -68.527344 23.136719 -68.519531 L 7.992188 -68.222656 C 7.511719 -68.214844 7.175781 -68.003906 7.042969 -67.65625 C 6.847656 -67.242188 6.851562 -66.898438 7.132812 -66.5625 C 8.253906 -65.351562 8.832031 -63.921875 8.863281 -62.277344 L 9.640625 -22.328125 C 9.707031 -18.902344 10.453125 -15.765625 11.882812 -12.914062 C 13.308594 -10.0625 15.273438 -7.632812 17.917969 -5.628906 C 20.144531 -3.886719 22.636719 -2.636719 25.394531 -1.796875 C 28.15625 -0.890625 31.042969 -0.535156 34.058594 -0.59375 C 37.070312 -0.652344 39.875 -1.121094 42.59375 -2.132812 C 45.320312 -3.078125 47.761719 -4.425781 49.917969 -6.25 C 52.480469 -8.359375 54.351562 -10.863281 55.667969 -13.765625 C 56.980469 -16.671875 57.605469 -19.835938 57.539062 -23.261719 L 56.761719 -63.210938 C 56.730469 -64.71875 57.25 -66.167969 58.320312 -67.558594 C 58.585938 -67.910156 58.582031 -68.25 58.367188 -68.65625 C 58.15625 -68.996094 57.808594 -69.195312 57.398438 -69.1875 Z M 57.398438 -69.1875 "/></g></g></g><g fill="rgb(98.81897%, 72.549438%, 49.01886%)" fill-opacity="1"><g transform="translate(487.382668, 115.318013)"><g><path d="M 47.304688 -71.503906 C 46.109375 -70.363281 44.757812 -69.765625 43.117188 -69.707031 L 6.882812 -68.414062 C 6.402344 -68.394531 6.070312 -68.179688 5.945312 -67.761719 C 5.753906 -67.34375 5.769531 -67.003906 6.054688 -66.667969 L 6.125 -66.601562 C 7.265625 -65.410156 7.863281 -63.992188 7.921875 -62.414062 L 9.925781 -6.320312 C 9.984375 -4.675781 9.484375 -3.289062 8.433594 -2.015625 L 8.367188 -1.945312 C 8.105469 -1.523438 8.117188 -1.179688 8.335938 -0.847656 C 8.488281 -0.441406 8.835938 -0.316406 9.316406 -0.332031 L 24.453125 -0.875 C 24.863281 -0.886719 25.199219 -1.039062 25.390625 -1.457031 C 25.515625 -1.804688 25.503906 -2.144531 25.285156 -2.550781 C 24.144531 -3.742188 23.546875 -5.09375 23.488281 -6.738281 L 22.777344 -26.667969 C 22.765625 -27.011719 22.886719 -27.359375 23.152344 -27.640625 C 23.417969 -27.925781 23.75 -28.144531 24.164062 -28.15625 L 30.53125 -28.386719 C 32.175781 -28.445312 33.566406 -27.875 34.773438 -26.820312 L 34.839844 -26.824219 C 35.191406 -26.5625 35.535156 -26.574219 35.9375 -26.796875 C 36.34375 -26.945312 36.539062 -27.296875 36.519531 -27.777344 L 35.980469 -42.914062 C 35.964844 -43.324219 35.746094 -43.660156 35.328125 -43.847656 C 34.910156 -44.039062 34.570312 -44.027344 34.234375 -43.742188 C 33.042969 -42.601562 31.691406 -42.003906 30.046875 -41.945312 L 23.679688 -41.71875 C 23.265625 -41.703125 22.921875 -41.828125 22.636719 -42.09375 C 22.351562 -42.355469 22.203125 -42.695312 22.1875 -43.105469 L 21.804688 -53.859375 C 21.789062 -54.269531 21.914062 -54.617188 22.179688 -54.902344 C 22.441406 -55.183594 22.78125 -55.335938 23.191406 -55.347656 L 43.601562 -56.078125 C 45.246094 -56.136719 46.636719 -55.636719 47.90625 -54.585938 C 48.257812 -54.324219 48.601562 -54.335938 49.003906 -54.554688 C 49.410156 -54.707031 49.605469 -55.058594 49.589844 -55.539062 L 49.046875 -70.675781 C 49.03125 -71.085938 48.816406 -71.421875 48.398438 -71.609375 C 47.980469 -71.734375 47.636719 -71.722656 47.304688 -71.503906 Z M 47.304688 -71.503906 "/></g></g></g><g fill="rgb(98.81897%, 72.549438%, 49.01886%)" fill-opacity="1"><g transform="translate(543.684969, 113.302543)"><g><path d="M 46.253906 -72.1875 C 45.078125 -71.027344 43.738281 -70.410156 42.09375 -70.328125 L 5.882812 -68.507812 C 5.40625 -68.484375 5.074219 -68.261719 4.957031 -67.84375 C 4.773438 -67.421875 4.789062 -67.078125 5.082031 -66.75 L 5.152344 -66.6875 C 6.308594 -65.507812 6.929688 -64.097656 7.007812 -62.523438 L 9.832031 -6.464844 C 9.914062 -4.820312 9.433594 -3.425781 8.402344 -2.136719 L 8.335938 -2.066406 C 8.082031 -1.640625 8.101562 -1.300781 8.324219 -0.96875 C 8.480469 -0.5625 8.828125 -0.445312 9.308594 -0.46875 L 24.4375 -1.230469 C 24.847656 -1.25 25.183594 -1.40625 25.367188 -1.824219 C 25.488281 -2.175781 25.46875 -2.515625 25.242188 -2.917969 C 24.085938 -4.09375 23.46875 -5.4375 23.386719 -7.078125 L 22.382812 -26.996094 C 22.367188 -27.339844 22.488281 -27.6875 22.746094 -27.976562 C 23.007812 -28.265625 23.339844 -28.488281 23.75 -28.507812 L 30.117188 -28.828125 C 31.757812 -28.910156 33.15625 -28.363281 34.375 -27.328125 L 34.445312 -27.328125 C 34.800781 -27.074219 35.144531 -27.089844 35.542969 -27.316406 C 35.949219 -27.472656 36.136719 -27.828125 36.113281 -28.304688 L 35.351562 -43.433594 C 35.328125 -43.84375 35.105469 -44.175781 34.6875 -44.359375 C 34.265625 -44.546875 33.921875 -44.527344 33.59375 -44.238281 C 32.417969 -43.078125 31.074219 -42.464844 29.433594 -42.378906 L 23.066406 -42.058594 C 22.65625 -42.039062 22.308594 -42.160156 22.019531 -42.417969 C 21.730469 -42.679688 21.578125 -43.015625 21.558594 -43.425781 L 21.015625 -54.171875 C 20.996094 -54.582031 21.117188 -54.929688 21.375 -55.21875 C 21.636719 -55.507812 21.972656 -55.660156 22.382812 -55.679688 L 42.78125 -56.707031 C 44.421875 -56.789062 45.820312 -56.3125 47.105469 -55.277344 C 47.460938 -55.023438 47.804688 -55.039062 48.203125 -55.265625 C 48.609375 -55.421875 48.796875 -55.777344 48.773438 -56.253906 L 48.011719 -71.382812 C 47.992188 -71.792969 47.769531 -72.125 47.347656 -72.308594 C 46.929688 -72.425781 46.585938 -72.410156 46.253906 -72.1875 Z M 46.253906 -72.1875 "/></g></g></g><g fill="rgb(98.81897%, 72.549438%, 49.01886%)" fill-opacity="1"><g transform="translate(599.951539, 110.465673)"><g><path d="M 48.738281 -18.34375 L 47.960938 -17.605469 C 47.253906 -16.875 46.453125 -16.546875 45.5625 -16.488281 L 24.359375 -15.113281 C 23.882812 -15.082031 23.464844 -15.191406 23.171875 -15.449219 C 22.8125 -15.699219 22.648438 -16.101562 22.613281 -16.648438 L 19.574219 -63.425781 C 19.472656 -65 19.925781 -66.472656 20.941406 -67.773438 L 21.003906 -67.847656 C 21.1875 -68.203125 21.164062 -68.542969 21 -68.945312 C 20.773438 -69.273438 20.417969 -69.457031 20.007812 -69.429688 L 4.894531 -68.449219 C 4.414062 -68.417969 4.085938 -68.191406 3.972656 -67.839844 C 3.792969 -67.414062 3.816406 -67.074219 4.113281 -66.75 C 5.285156 -65.589844 5.925781 -64.1875 6.027344 -62.617188 L 9.957031 -2.15625 C 9.988281 -1.679688 10.148438 -1.277344 10.511719 -1.027344 C 10.804688 -0.703125 11.226562 -0.59375 11.703125 -0.621094 L 46.445312 -2.878906 C 47.335938 -2.9375 48.179688 -2.648438 48.972656 -2.082031 L 49.835938 -1.453125 C 50.195312 -1.199219 50.539062 -1.222656 50.933594 -1.453125 C 51.269531 -1.613281 51.449219 -1.96875 51.417969 -2.449219 L 50.4375 -17.5625 C 50.410156 -17.972656 50.183594 -18.300781 49.828125 -18.484375 C 49.410156 -18.59375 49.066406 -18.570312 48.738281 -18.34375 Z M 48.738281 -18.34375 "/></g></g></g><g fill="rgb(98.81897%, 72.549438%, 49.01886%)" fill-opacity="1"><g transform="translate(656.12721, 106.827779)"><g><path d="M 44.25 -72.371094 C 43.175781 -71.1875 41.847656 -70.597656 40.347656 -70.476562 L 3.933594 -67.558594 C 3.457031 -67.519531 3.128906 -67.289062 3.027344 -66.867188 C 2.855469 -66.441406 2.882812 -66.097656 3.183594 -65.777344 L 3.402344 -65.589844 C 4.597656 -64.449219 5.257812 -63.058594 5.390625 -61.417969 L 9.835938 -5.945312 C 9.902344 -5.125 9.824219 -4.363281 9.613281 -3.589844 C 9.398438 -2.816406 9.042969 -2.101562 8.542969 -1.511719 L 8.355469 -1.289062 C 8.113281 -0.855469 8.140625 -0.515625 8.378906 -0.121094 C 8.546875 0.277344 8.902344 0.386719 9.378906 0.347656 L 45.792969 -2.570312 C 47.292969 -2.691406 48.703125 -2.253906 49.949219 -1.324219 C 50.316406 -1.007812 50.730469 -0.972656 51.125 -1.210938 C 51.523438 -1.382812 51.769531 -1.746094 51.726562 -2.292969 L 50.503906 -17.527344 C 50.472656 -17.933594 50.238281 -18.261719 49.8125 -18.433594 C 49.394531 -18.535156 48.988281 -18.433594 48.738281 -18.140625 C 47.601562 -16.878906 46.210938 -16.21875 44.570312 -16.085938 L 24.484375 -14.476562 C 24.007812 -14.4375 23.585938 -14.542969 23.21875 -14.855469 C 22.855469 -15.101562 22.683594 -15.5 22.640625 -16.046875 L 21.820312 -26.296875 C 21.78125 -26.773438 21.882812 -27.195312 22.199219 -27.5625 C 22.519531 -27.863281 22.910156 -28.101562 23.390625 -28.140625 L 29.402344 -28.621094 C 31.039062 -28.753906 32.523438 -28.253906 33.84375 -27.257812 C 34.207031 -27.011719 34.546875 -27.039062 34.941406 -27.277344 C 35.335938 -27.515625 35.511719 -27.875 35.480469 -28.285156 L 34.261719 -43.449219 C 34.230469 -43.859375 34.003906 -44.117188 33.578125 -44.289062 C 33.152344 -44.460938 32.808594 -44.433594 32.484375 -44.203125 C 31.347656 -42.941406 29.957031 -42.28125 28.316406 -42.148438 L 22.304688 -41.667969 C 21.828125 -41.628906 21.40625 -41.730469 21.035156 -42.046875 C 20.671875 -42.292969 20.503906 -42.691406 20.460938 -43.238281 L 19.636719 -53.484375 C 19.601562 -53.964844 19.703125 -54.382812 20.019531 -54.753906 C 20.335938 -55.054688 20.730469 -55.292969 21.210938 -55.328125 L 41.292969 -56.941406 C 42.933594 -57.070312 44.417969 -56.570312 45.734375 -55.578125 C 46.035156 -55.257812 46.453125 -55.222656 46.84375 -55.460938 C 47.242188 -55.628906 47.421875 -55.988281 47.382812 -56.464844 L 46.15625 -71.769531 C 46.125 -72.179688 45.824219 -72.5 45.394531 -72.671875 C 44.976562 -72.773438 44.570312 -72.671875 44.25 -72.371094 Z M 44.25 -72.371094 "/></g></g></g><g fill="rgb(92.939758%, 84.709167%, 57.249451%)" fill-opacity="1"><g transform="translate(36.436579, 98.540894)"><g><path d="M 54.007812 -30.621094 C 53.75 -30.847656 53.632812 -31.132812 53.660156 -31.472656 C 53.617188 -31.75 53.707031 -32.019531 53.933594 -32.277344 C 55.222656 -33.824219 56.253906 -35.527344 57.023438 -37.394531 C 57.71875 -39.261719 58.214844 -41.148438 58.371094 -43.128906 C 58.570312 -45.589844 58.222656 -48.160156 57.464844 -50.695312 C 56.636719 -53.238281 55.304688 -55.542969 53.476562 -57.613281 C 51.648438 -59.683594 49.308594 -61.382812 46.46875 -62.847656 C 43.625 -64.242188 40.257812 -65.128906 36.429688 -65.4375 L 14.636719 -67.171875 C 14.160156 -67.210938 13.800781 -67.035156 13.632812 -66.632812 C 13.394531 -66.242188 13.429688 -65.824219 13.75 -65.523438 C 14.871094 -64.0625 15.421875 -62.367188 15.277344 -60.523438 L 10.90625 -5.730469 C 10.753906 -3.816406 9.941406 -2.234375 8.601562 -0.964844 C 8.296875 -0.574219 8.269531 -0.234375 8.445312 0.125 C 8.550781 0.542969 8.882812 0.707031 9.359375 0.746094 L 34.089844 2.71875 C 37.917969 3.023438 41.375 2.75 44.40625 1.820312 C 47.4375 0.894531 50.023438 -0.480469 52.15625 -2.234375 C 54.289062 -3.988281 55.960938 -5.988281 57.183594 -8.367188 C 58.328125 -10.679688 59.070312 -13.097656 59.277344 -15.691406 C 59.496094 -18.425781 59.089844 -21.070312 58.191406 -23.617188 C 57.296875 -26.164062 55.902344 -28.542969 54.007812 -30.621094 Z M 27.34375 -41.132812 L 28.058594 -50.082031 C 28.105469 -50.699219 28.355469 -51.230469 28.871094 -51.667969 C 29.382812 -52.039062 29.949219 -52.269531 30.632812 -52.214844 L 35.347656 -51.839844 C 37.054688 -51.703125 38.542969 -51.378906 39.808594 -50.867188 C 41.003906 -50.359375 42.058594 -49.792969 42.832031 -49.113281 C 43.59375 -48.363281 44.085938 -47.636719 44.433594 -46.785156 C 44.777344 -45.933594 44.910156 -45.027344 44.84375 -44.207031 C 44.710938 -42.5 43.910156 -41.121094 42.519531 -40.0625 C 40.613281 -38.5625 37.816406 -37.960938 34.261719 -38.246094 L 29.550781 -38.621094 C 28.867188 -38.675781 28.335938 -38.921875 27.894531 -39.441406 C 27.449219 -39.886719 27.289062 -40.449219 27.34375 -41.132812 Z M 43.425781 -12.625 C 41.519531 -11.128906 38.722656 -10.527344 35.167969 -10.808594 L 27.382812 -11.429688 C 26.699219 -11.484375 26.167969 -11.734375 25.726562 -12.25 C 25.28125 -12.695312 25.125 -13.328125 25.179688 -14.011719 L 25.890625 -22.894531 C 25.9375 -23.507812 26.1875 -24.039062 26.703125 -24.476562 C 27.21875 -24.917969 27.789062 -25.148438 28.472656 -25.09375 L 36.257812 -24.472656 C 37.96875 -24.335938 39.453125 -24.011719 40.652344 -23.503906 C 41.847656 -22.996094 42.898438 -22.363281 43.667969 -21.679688 C 44.433594 -20.933594 44.992188 -20.199219 45.339844 -19.347656 C 45.683594 -18.496094 45.816406 -17.589844 45.75 -16.773438 C 45.621094 -15.132812 44.824219 -13.75 43.425781 -12.625 Z M 43.425781 -12.625 "/></g></g></g><g fill="rgb(92.939758%, 84.709167%, 57.249451%)" fill-opacity="1"><g transform="translate(100.224547, 103.592058)"><g><path d="M 50.691406 -11.929688 L 49.828125 -11.296875 C 49.03125 -10.660156 48.191406 -10.441406 47.304688 -10.496094 L 26.101562 -11.855469 C 25.621094 -11.886719 25.222656 -12.050781 24.964844 -12.339844 C 24.640625 -12.636719 24.53125 -13.054688 24.566406 -13.601562 L 27.5625 -60.386719 C 27.664062 -61.957031 28.304688 -63.359375 29.476562 -64.519531 L 29.546875 -64.585938 C 29.777344 -64.914062 29.796875 -65.253906 29.6875 -65.675781 C 29.503906 -66.03125 29.175781 -66.257812 28.765625 -66.285156 L 13.648438 -67.253906 C 13.171875 -67.28125 12.816406 -67.097656 12.65625 -66.765625 C 12.425781 -66.367188 12.402344 -66.027344 12.65625 -65.667969 C 13.671875 -64.367188 14.125 -62.894531 14.023438 -61.320312 L 10.152344 -0.859375 C 10.121094 -0.382812 10.230469 0.0390625 10.554688 0.332031 C 10.804688 0.691406 11.207031 0.855469 11.6875 0.886719 L 46.429688 3.113281 C 47.320312 3.167969 48.121094 3.5625 48.832031 4.226562 L 49.609375 4.964844 C 49.933594 5.261719 50.277344 5.28125 50.699219 5.101562 C 51.050781 4.988281 51.277344 4.660156 51.308594 4.179688 L 52.277344 -10.933594 C 52.304688 -11.34375 52.121094 -11.699219 51.789062 -11.925781 C 51.390625 -12.089844 51.046875 -12.113281 50.691406 -11.929688 Z M 50.691406 -11.929688 "/></g></g></g><g fill="rgb(92.939758%, 84.709167%, 57.249451%)" fill-opacity="1"><g transform="translate(156.420567, 107.218487)"><g><path d="M 54.53125 -54.859375 C 52.09375 -58.40625 49.140625 -61.15625 45.808594 -63.171875 C 42.402344 -65.121094 38.820312 -66.253906 34.988281 -66.441406 C 31.152344 -66.625 27.410156 -65.847656 23.832031 -64.238281 C 20.253906 -62.558594 17.113281 -60.101562 14.347656 -56.804688 C 11.726562 -53.707031 9.703125 -50.167969 8.277344 -46.257812 C 6.785156 -42.351562 5.964844 -38.136719 5.75 -33.753906 C 5.539062 -29.375 5.949219 -25.101562 7.058594 -21.066406 C 8.09375 -16.96875 9.769531 -13.320312 12.082031 -10.050781 C 14.519531 -6.5 17.402344 -3.6875 20.804688 -1.738281 C 24.207031 0.28125 27.859375 1.347656 31.695312 1.535156 C 35.527344 1.722656 39.199219 1.007812 42.78125 -0.671875 C 46.289062 -2.285156 49.5 -4.808594 52.265625 -8.105469 C 54.882812 -11.132812 56.902344 -14.605469 58.398438 -18.578125 C 59.824219 -22.488281 60.714844 -26.703125 60.925781 -31.082031 C 61.140625 -35.464844 60.660156 -39.742188 59.621094 -43.769531 C 58.511719 -47.804688 56.839844 -51.523438 54.53125 -54.859375 Z M 32.351562 -12.019531 C 30.433594 -12.113281 28.613281 -12.75 27.023438 -13.925781 C 25.363281 -15.101562 23.929688 -16.613281 22.785156 -18.519531 C 21.574219 -20.433594 20.652344 -22.671875 20.019531 -25.171875 C 19.386719 -27.671875 19.171875 -30.292969 19.304688 -33.097656 C 19.4375 -35.835938 19.910156 -38.488281 20.78125 -40.917969 C 21.65625 -43.34375 22.785156 -45.417969 24.179688 -47.273438 C 25.5 -49.058594 27.078125 -50.492188 28.84375 -51.503906 C 30.539062 -52.523438 32.414062 -52.980469 34.332031 -52.886719 C 36.246094 -52.792969 38 -52.160156 39.660156 -50.980469 C 41.25 -49.808594 42.683594 -48.226562 43.824219 -46.320312 C 44.964844 -44.34375 45.886719 -42.171875 46.523438 -39.671875 C 47.15625 -37.171875 47.4375 -34.480469 47.304688 -31.742188 C 47.167969 -28.9375 46.632812 -26.355469 45.757812 -23.925781 C 44.886719 -21.5 43.753906 -19.359375 42.433594 -17.570312 C 41.109375 -15.78125 39.535156 -14.414062 37.839844 -13.398438 C 36.074219 -12.386719 34.269531 -11.925781 32.351562 -12.019531 Z M 32.351562 -12.019531 "/></g></g></g><g fill="rgb(92.939758%, 84.709167%, 57.249451%)" fill-opacity="1"><g transform="translate(220.51501, 110.317124)"><g><path d="M 56.558594 0.425781 L 55.554688 -0.429688 C 55.152344 -0.648438 54.753906 -1.070312 54.359375 -1.632812 C 53.898438 -2.195312 53.507812 -2.824219 53.113281 -3.453125 C 52.589844 -4.15625 52.128906 -4.855469 51.675781 -5.695312 C 51.417969 -6.113281 51.292969 -6.527344 51.308594 -7.078125 C 51.328125 -7.625 51.546875 -8.097656 51.902344 -8.5 L 52.117188 -8.695312 C 54.683594 -11.769531 56.648438 -15.339844 58.074219 -19.273438 C 59.433594 -23.207031 60.253906 -27.433594 60.394531 -31.886719 C 60.535156 -36.269531 59.984375 -40.539062 58.878906 -44.550781 C 57.703125 -48.566406 55.96875 -52.253906 53.601562 -55.484375 C 51.109375 -58.992188 48.109375 -61.691406 44.742188 -63.652344 C 41.308594 -65.609375 37.707031 -66.6875 33.871094 -66.808594 C 30.035156 -66.929688 26.304688 -66.089844 22.753906 -64.351562 C 19.203125 -62.609375 16.105469 -60.105469 13.394531 -56.761719 C 10.828125 -53.6875 8.863281 -50.117188 7.503906 -46.183594 C 6.074219 -42.25 5.324219 -38.023438 5.183594 -33.640625 C 5.042969 -29.1875 5.523438 -24.921875 6.699219 -20.90625 C 7.804688 -16.894531 9.539062 -13.203125 11.90625 -9.976562 C 14.398438 -6.46875 17.332031 -3.769531 20.765625 -1.808594 C 24.199219 0.152344 27.871094 1.160156 31.707031 1.28125 C 33.96875 1.355469 36.238281 1.082031 38.589844 0.472656 C 39.144531 0.285156 39.550781 0.433594 39.875 0.992188 C 40.070312 1.410156 40.40625 1.558594 40.886719 1.574219 L 56.160156 2.058594 C 56.644531 2.007812 56.925781 1.808594 57.003906 1.402344 C 57.015625 1.058594 56.890625 0.710938 56.558594 0.425781 Z M 43.714844 -20.484375 C 43.570312 -20.351562 43.5 -20.285156 43.363281 -20.289062 C 43.226562 -20.292969 43.160156 -20.363281 43.097656 -20.503906 C 42.574219 -21.273438 41.902344 -21.777344 41.085938 -22.007812 C 40.273438 -22.238281 39.445312 -22.128906 38.675781 -21.671875 L 32.527344 -18.097656 C 31.691406 -17.574219 31.1875 -16.90625 30.957031 -16.089844 C 30.726562 -15.273438 30.835938 -14.449219 31.359375 -13.675781 L 31.816406 -12.910156 C 31.671875 -12.707031 31.597656 -12.574219 31.597656 -12.574219 C 31.597656 -12.574219 31.527344 -12.4375 31.453125 -12.300781 C 29.609375 -12.5 27.914062 -13.167969 26.308594 -14.386719 C 24.699219 -15.535156 23.378906 -17.085938 22.203125 -18.972656 C 21.027344 -20.863281 20.136719 -23.015625 19.53125 -25.503906 C 18.921875 -27.921875 18.660156 -30.46875 18.746094 -33.210938 C 18.832031 -35.949219 19.261719 -38.609375 20.09375 -41.050781 C 20.925781 -43.492188 22.019531 -45.585938 23.378906 -47.394531 C 24.671875 -49.203125 26.226562 -50.664062 27.976562 -51.703125 C 29.652344 -52.746094 31.519531 -53.238281 33.4375 -53.175781 C 35.355469 -53.113281 37.121094 -52.511719 38.796875 -51.359375 C 40.40625 -50.210938 41.867188 -48.65625 43.039062 -46.769531 C 44.214844 -44.878906 45.175781 -42.722656 45.851562 -40.234375 C 46.523438 -37.742188 46.851562 -35.058594 46.765625 -32.320312 C 46.695312 -30.125 46.351562 -28.011719 45.878906 -26.039062 C 45.332031 -24 44.589844 -22.171875 43.714844 -20.484375 Z M 43.714844 -20.484375 "/></g></g></g><g fill="rgb(92.939758%, 84.709167%, 57.249451%)" fill-opacity="1"><g transform="translate(284.64419, 112.344269)"><g><path d="M 57.117188 -50.394531 L 56.78125 -50.808594 C 55.835938 -51.785156 55.234375 -52.890625 54.84375 -54.128906 C 53.667969 -57.988281 51.183594 -61.175781 47.519531 -63.703125 C 45.484375 -65.035156 43.167969 -66.097656 40.574219 -66.824219 C 37.980469 -67.550781 35.316406 -67.933594 32.4375 -67.976562 C 29.558594 -68.019531 26.742188 -67.652344 24.058594 -67.007812 C 21.375 -66.363281 18.960938 -65.375 16.816406 -64.105469 C 13.914062 -62.367188 11.753906 -60.273438 10.207031 -57.761719 C 8.664062 -55.25 7.933594 -52.519531 7.886719 -49.503906 C 7.800781 -43.75 10.398438 -38.773438 15.816406 -34.644531 C 17.710938 -33.109375 19.75 -31.84375 21.996094 -30.710938 C 24.238281 -29.582031 26.550781 -28.449219 28.867188 -27.453125 C 30.226562 -26.746094 31.722656 -26.039062 33.222656 -25.332031 C 34.71875 -24.621094 36.078125 -23.847656 37.300781 -23.144531 C 38.523438 -22.371094 39.539062 -21.601562 40.347656 -20.835938 C 41.160156 -20 41.558594 -19.238281 41.546875 -18.484375 C 41.53125 -17.527344 41.175781 -16.640625 40.480469 -15.964844 C 39.785156 -15.292969 38.882812 -14.6875 37.851562 -14.292969 C 36.816406 -13.898438 35.714844 -13.570312 34.476562 -13.386719 C 33.238281 -13.128906 32.140625 -13.078125 31.046875 -13.09375 C 29.675781 -13.117188 28.308594 -13.273438 26.804688 -13.640625 C 25.300781 -13.9375 24.007812 -14.503906 22.992188 -15.273438 C 22.71875 -15.484375 22.519531 -15.761719 22.523438 -16.105469 C 22.460938 -16.449219 22.535156 -16.722656 22.8125 -16.992188 L 22.882812 -17.058594 C 23.09375 -17.398438 23.097656 -17.742188 22.964844 -18.152344 C 22.765625 -18.570312 22.429688 -18.78125 22.015625 -18.785156 L 6.871094 -19.019531 C 6.390625 -19.027344 6.046875 -18.824219 5.902344 -18.417969 C 5.691406 -18.007812 5.6875 -17.664062 5.953125 -17.320312 L 6.226562 -17.039062 C 7.167969 -15.929688 7.765625 -14.753906 8.160156 -13.582031 C 9.332031 -9.589844 11.75 -6.398438 15.550781 -3.941406 C 17.585938 -2.539062 19.96875 -1.476562 22.5625 -0.75 C 25.15625 0.0429688 27.960938 0.429688 30.835938 0.472656 C 34.265625 0.527344 37.492188 0.0976562 40.453125 -0.816406 C 43.414062 -1.734375 45.96875 -2.996094 48.121094 -4.675781 C 50.269531 -6.289062 51.945312 -8.320312 53.214844 -10.628906 C 54.417969 -12.941406 55.074219 -15.46875 55.117188 -18.277344 C 55.160156 -21.222656 54.515625 -23.839844 53.246094 -26.050781 C 51.980469 -28.265625 50.363281 -30.207031 48.332031 -31.882812 C 46.300781 -33.5625 44.128906 -34.964844 41.683594 -36.238281 C 39.234375 -37.507812 36.851562 -38.640625 34.539062 -39.773438 C 32.972656 -40.484375 31.410156 -41.191406 29.84375 -41.96875 C 28.277344 -42.679688 26.851562 -43.457031 25.628906 -44.296875 C 24.40625 -45.070312 23.394531 -45.90625 22.582031 -46.742188 C 21.773438 -47.578125 21.441406 -48.40625 21.457031 -49.296875 C 21.46875 -50.050781 21.753906 -50.730469 22.449219 -51.40625 C 23.078125 -52.082031 23.90625 -52.617188 24.941406 -53.082031 C 25.90625 -53.476562 27.078125 -53.800781 28.382812 -54.054688 C 29.621094 -54.3125 30.925781 -54.429688 32.226562 -54.410156 C 33.734375 -54.386719 35.242188 -54.15625 36.605469 -53.863281 C 37.972656 -53.496094 39.0625 -53 40.011719 -52.371094 C 40.28125 -52.160156 40.484375 -51.882812 40.476562 -51.539062 C 40.472656 -51.199219 40.398438 -50.925781 40.191406 -50.722656 L 40.191406 -50.652344 C 39.910156 -50.246094 39.90625 -49.902344 40.105469 -49.558594 C 40.234375 -49.144531 40.578125 -49.003906 41.054688 -48.996094 L 56.199219 -48.761719 C 56.613281 -48.757812 56.957031 -48.886719 57.167969 -49.296875 C 57.3125 -49.636719 57.316406 -49.980469 57.117188 -50.394531 Z M 57.117188 -50.394531 "/></g></g></g><g fill="rgb(92.939758%, 84.709167%, 57.249451%)" fill-opacity="1"><g transform="translate(347.383993, 113.326777)"><g><path d="M 59.554688 -1.8125 L 59.417969 -1.882812 C 58.320312 -3.042969 57.835938 -4.414062 57.832031 -6.058594 L 57.738281 -62.257812 C 57.738281 -63.835938 58.214844 -65.207031 59.308594 -66.441406 L 59.445312 -66.511719 C 59.652344 -66.851562 59.652344 -67.195312 59.445312 -67.605469 C 59.238281 -68.019531 58.964844 -68.222656 58.550781 -68.222656 L 43.335938 -68.195312 C 42.925781 -68.195312 42.585938 -67.988281 42.378906 -67.578125 C 42.175781 -67.167969 42.175781 -66.824219 42.449219 -66.480469 L 42.519531 -66.480469 C 43.617188 -65.25 44.167969 -63.8125 44.171875 -62.304688 L 44.203125 -43.183594 C 44.203125 -42.496094 43.929688 -41.949219 43.519531 -41.535156 C 43.039062 -41.125 42.492188 -40.917969 41.875 -40.917969 L 25.976562 -40.890625 C 25.289062 -40.890625 24.742188 -41.09375 24.328125 -41.503906 C 23.847656 -41.914062 23.640625 -42.464844 23.640625 -43.148438 L 23.609375 -62.339844 C 23.605469 -63.847656 24.152344 -65.21875 25.246094 -66.453125 C 25.453125 -66.796875 25.453125 -67.140625 25.3125 -67.550781 C 25.109375 -67.960938 24.765625 -68.164062 24.351562 -68.164062 L 9.207031 -68.140625 C 8.726562 -68.140625 8.386719 -67.933594 8.25 -67.519531 C 8.042969 -67.109375 8.042969 -66.765625 8.320312 -66.425781 L 8.457031 -66.289062 C 9.484375 -65.125 10.035156 -63.753906 10.039062 -62.179688 L 10.132812 -6.046875 C 10.136719 -4.402344 9.589844 -2.964844 8.5625 -1.863281 L 8.425781 -1.726562 C 8.152344 -1.316406 8.152344 -0.972656 8.359375 -0.5625 C 8.5 -0.152344 8.839844 -0.015625 9.320312 -0.015625 L 10.144531 -0.015625 L 23.714844 -0.0390625 L 24.46875 -0.0390625 C 24.878906 -0.0429688 25.222656 -0.179688 25.425781 -0.589844 C 25.5625 -1.003906 25.5625 -1.34375 25.355469 -1.753906 C 24.257812 -2.988281 23.707031 -4.355469 23.703125 -5.933594 L 23.671875 -25.054688 C 23.671875 -25.671875 23.875 -26.21875 24.355469 -26.632812 C 24.765625 -27.042969 25.3125 -27.320312 25.996094 -27.320312 L 41.898438 -27.347656 C 42.515625 -27.347656 43.0625 -27.074219 43.542969 -26.664062 C 43.957031 -26.253906 44.230469 -25.707031 44.230469 -25.089844 L 44.265625 -5.96875 C 44.265625 -4.390625 43.71875 -3.019531 42.625 -1.851562 L 42.558594 -1.785156 C 42.285156 -1.371094 42.285156 -1.03125 42.492188 -0.621094 C 42.699219 -0.207031 43.039062 -0.0703125 43.453125 -0.0742188 L 44.273438 -0.0742188 L 57.84375 -0.0976562 L 58.667969 -0.0976562 C 59.078125 -0.0976562 59.351562 -0.234375 59.554688 -0.648438 C 59.761719 -1.058594 59.761719 -1.402344 59.554688 -1.8125 Z M 59.554688 -1.8125 "/></g></g></g><g fill="rgb(92.939758%, 84.709167%, 57.249451%)" fill-opacity="1"><g transform="translate(416.127814, 113.205924)"><g><path d="M 57.398438 -69.1875 L 42.253906 -68.890625 C 41.773438 -68.882812 41.4375 -68.671875 41.304688 -68.324219 C 41.109375 -67.910156 41.113281 -67.566406 41.394531 -67.230469 C 42.515625 -65.949219 43.160156 -64.523438 43.191406 -62.945312 L 43.972656 -23 C 44.011719 -20.875 43.496094 -19.21875 42.558594 -18.105469 C 41.621094 -16.921875 40.542969 -16.078125 39.320312 -15.503906 C 38.097656 -14.933594 36.9375 -14.566406 35.84375 -14.410156 C 34.75 -14.25 34.066406 -14.238281 33.792969 -14.230469 C 33.515625 -14.226562 32.761719 -14.210938 31.664062 -14.328125 C 30.566406 -14.441406 29.394531 -14.761719 28.148438 -15.285156 C 26.90625 -15.8125 25.792969 -16.613281 24.8125 -17.757812 C 23.832031 -18.835938 23.320312 -20.46875 23.277344 -22.59375 L 22.5 -62.542969 C 22.464844 -64.1875 22.988281 -65.636719 24.058594 -66.890625 C 24.257812 -67.238281 24.25 -67.582031 24.105469 -67.988281 C 23.894531 -68.328125 23.546875 -68.527344 23.136719 -68.519531 L 7.992188 -68.222656 C 7.511719 -68.214844 7.175781 -68.003906 7.042969 -67.65625 C 6.847656 -67.242188 6.851562 -66.898438 7.132812 -66.5625 C 8.253906 -65.351562 8.832031 -63.921875 8.863281 -62.277344 L 9.640625 -22.328125 C 9.707031 -18.902344 10.453125 -15.765625 11.882812 -12.914062 C 13.308594 -10.0625 15.273438 -7.632812 17.917969 -5.628906 C 20.144531 -3.886719 22.636719 -2.636719 25.394531 -1.796875 C 28.15625 -0.890625 31.042969 -0.535156 34.058594 -0.59375 C 37.070312 -0.652344 39.875 -1.121094 42.59375 -2.132812 C 45.320312 -3.078125 47.761719 -4.425781 49.917969 -6.25 C 52.480469 -8.359375 54.351562 -10.863281 55.667969 -13.765625 C 56.980469 -16.671875 57.605469 -19.835938 57.539062 -23.261719 L 56.761719 -63.210938 C 56.730469 -64.71875 57.25 -66.167969 58.320312 -67.558594 C 58.585938 -67.910156 58.582031 -68.25 58.367188 -68.65625 C 58.15625 -68.996094 57.808594 -69.195312 57.398438 -69.1875 Z M 57.398438 -69.1875 "/></g></g></g><g fill="rgb(92.939758%, 84.709167%, 57.249451%)" fill-opacity="1"><g transform="translate(484.925723, 111.809145)"><g><path d="M 47.304688 -71.503906 C 46.109375 -70.363281 44.757812 -69.765625 43.117188 -69.707031 L 6.882812 -68.414062 C 6.402344 -68.394531 6.070312 -68.179688 5.945312 -67.761719 C 5.753906 -67.34375 5.769531 -67.003906 6.054688 -66.667969 L 6.125 -66.601562 C 7.265625 -65.410156 7.863281 -63.992188 7.921875 -62.414062 L 9.925781 -6.320312 C 9.984375 -4.675781 9.484375 -3.289062 8.433594 -2.015625 L 8.367188 -1.945312 C 8.105469 -1.523438 8.117188 -1.179688 8.335938 -0.847656 C 8.488281 -0.441406 8.835938 -0.316406 9.316406 -0.332031 L 24.453125 -0.875 C 24.863281 -0.886719 25.199219 -1.039062 25.390625 -1.457031 C 25.515625 -1.804688 25.503906 -2.144531 25.285156 -2.550781 C 24.144531 -3.742188 23.546875 -5.09375 23.488281 -6.738281 L 22.777344 -26.667969 C 22.765625 -27.011719 22.886719 -27.359375 23.152344 -27.640625 C 23.417969 -27.925781 23.75 -28.144531 24.164062 -28.15625 L 30.53125 -28.386719 C 32.175781 -28.445312 33.566406 -27.875 34.773438 -26.820312 L 34.839844 -26.824219 C 35.191406 -26.5625 35.535156 -26.574219 35.9375 -26.796875 C 36.34375 -26.945312 36.539062 -27.296875 36.519531 -27.777344 L 35.980469 -42.914062 C 35.964844 -43.324219 35.746094 -43.660156 35.328125 -43.847656 C 34.910156 -44.039062 34.570312 -44.027344 34.234375 -43.742188 C 33.042969 -42.601562 31.691406 -42.003906 30.046875 -41.945312 L 23.679688 -41.71875 C 23.265625 -41.703125 22.921875 -41.828125 22.636719 -42.09375 C 22.351562 -42.355469 22.203125 -42.695312 22.1875 -43.105469 L 21.804688 -53.859375 C 21.789062 -54.269531 21.914062 -54.617188 22.179688 -54.902344 C 22.441406 -55.183594 22.78125 -55.335938 23.191406 -55.347656 L 43.601562 -56.078125 C 45.246094 -56.136719 46.636719 -55.636719 47.90625 -54.585938 C 48.257812 -54.324219 48.601562 -54.335938 49.003906 -54.554688 C 49.410156 -54.707031 49.605469 -55.058594 49.589844 -55.539062 L 49.046875 -70.675781 C 49.03125 -71.085938 48.816406 -71.421875 48.398438 -71.609375 C 47.980469 -71.734375 47.636719 -71.722656 47.304688 -71.503906 Z M 47.304688 -71.503906 "/></g></g></g><g fill="rgb(92.939758%, 84.709167%, 57.249451%)" fill-opacity="1"><g transform="translate(541.228072, 109.793674)"><g><path d="M 46.253906 -72.1875 C 45.078125 -71.027344 43.738281 -70.410156 42.09375 -70.328125 L 5.882812 -68.507812 C 5.40625 -68.484375 5.074219 -68.261719 4.957031 -67.84375 C 4.773438 -67.421875 4.789062 -67.078125 5.082031 -66.75 L 5.152344 -66.6875 C 6.308594 -65.507812 6.929688 -64.097656 7.007812 -62.523438 L 9.832031 -6.464844 C 9.914062 -4.820312 9.433594 -3.425781 8.402344 -2.136719 L 8.335938 -2.066406 C 8.082031 -1.640625 8.101562 -1.300781 8.324219 -0.96875 C 8.480469 -0.5625 8.828125 -0.445312 9.308594 -0.46875 L 24.4375 -1.230469 C 24.847656 -1.25 25.183594 -1.40625 25.367188 -1.824219 C 25.488281 -2.175781 25.46875 -2.515625 25.242188 -2.917969 C 24.085938 -4.09375 23.46875 -5.4375 23.386719 -7.078125 L 22.382812 -26.996094 C 22.367188 -27.339844 22.488281 -27.6875 22.746094 -27.976562 C 23.007812 -28.265625 23.339844 -28.488281 23.75 -28.507812 L 30.117188 -28.828125 C 31.757812 -28.910156 33.15625 -28.363281 34.375 -27.328125 L 34.445312 -27.328125 C 34.800781 -27.074219 35.144531 -27.089844 35.542969 -27.316406 C 35.949219 -27.472656 36.136719 -27.828125 36.113281 -28.304688 L 35.351562 -43.433594 C 35.328125 -43.84375 35.105469 -44.175781 34.6875 -44.359375 C 34.265625 -44.546875 33.921875 -44.527344 33.59375 -44.238281 C 32.417969 -43.078125 31.074219 -42.464844 29.433594 -42.378906 L 23.066406 -42.058594 C 22.65625 -42.039062 22.308594 -42.160156 22.019531 -42.417969 C 21.730469 -42.679688 21.578125 -43.015625 21.558594 -43.425781 L 21.015625 -54.171875 C 20.996094 -54.582031 21.117188 -54.929688 21.375 -55.21875 C 21.636719 -55.507812 21.972656 -55.660156 22.382812 -55.679688 L 42.78125 -56.707031 C 44.421875 -56.789062 45.820312 -56.3125 47.105469 -55.277344 C 47.460938 -55.023438 47.804688 -55.039062 48.203125 -55.265625 C 48.609375 -55.421875 48.796875 -55.777344 48.773438 -56.253906 L 48.011719 -71.382812 C 47.992188 -71.792969 47.769531 -72.125 47.347656 -72.308594 C 46.929688 -72.425781 46.585938 -72.410156 46.253906 -72.1875 Z M 46.253906 -72.1875 "/></g></g></g><g fill="rgb(92.939758%, 84.709167%, 57.249451%)" fill-opacity="1"><g transform="translate(597.494619, 106.956804)"><g><path d="M 48.738281 -18.34375 L 47.960938 -17.605469 C 47.253906 -16.875 46.453125 -16.546875 45.5625 -16.488281 L 24.359375 -15.113281 C 23.882812 -15.082031 23.464844 -15.191406 23.171875 -15.449219 C 22.8125 -15.699219 22.648438 -16.101562 22.613281 -16.648438 L 19.574219 -63.425781 C 19.472656 -65 19.925781 -66.472656 20.941406 -67.773438 L 21.003906 -67.847656 C 21.1875 -68.203125 21.164062 -68.542969 21 -68.945312 C 20.773438 -69.273438 20.417969 -69.457031 20.007812 -69.429688 L 4.894531 -68.449219 C 4.414062 -68.417969 4.085938 -68.191406 3.972656 -67.839844 C 3.792969 -67.414062 3.816406 -67.074219 4.113281 -66.75 C 5.285156 -65.589844 5.925781 -64.1875 6.027344 -62.617188 L 9.957031 -2.15625 C 9.988281 -1.679688 10.148438 -1.277344 10.511719 -1.027344 C 10.804688 -0.703125 11.226562 -0.59375 11.703125 -0.621094 L 46.445312 -2.878906 C 47.335938 -2.9375 48.179688 -2.648438 48.972656 -2.082031 L 49.835938 -1.453125 C 50.195312 -1.199219 50.539062 -1.222656 50.933594 -1.453125 C 51.269531 -1.613281 51.449219 -1.96875 51.417969 -2.449219 L 50.4375 -17.5625 C 50.410156 -17.972656 50.183594 -18.300781 49.828125 -18.484375 C 49.410156 -18.59375 49.066406 -18.570312 48.738281 -18.34375 Z M 48.738281 -18.34375 "/></g></g></g><g fill="rgb(92.939758%, 84.709167%, 57.249451%)" fill-opacity="1"><g transform="translate(653.670242, 103.31891)"><g><path d="M 44.25 -72.371094 C 43.175781 -71.1875 41.847656 -70.597656 40.347656 -70.476562 L 3.933594 -67.558594 C 3.457031 -67.519531 3.128906 -67.289062 3.027344 -66.867188 C 2.855469 -66.441406 2.882812 -66.097656 3.183594 -65.777344 L 3.402344 -65.589844 C 4.597656 -64.449219 5.257812 -63.058594 5.390625 -61.417969 L 9.835938 -5.945312 C 9.902344 -5.125 9.824219 -4.363281 9.613281 -3.589844 C 9.398438 -2.816406 9.042969 -2.101562 8.542969 -1.511719 L 8.355469 -1.289062 C 8.113281 -0.855469 8.140625 -0.515625 8.378906 -0.121094 C 8.546875 0.277344 8.902344 0.386719 9.378906 0.347656 L 45.792969 -2.570312 C 47.292969 -2.691406 48.703125 -2.253906 49.949219 -1.324219 C 50.316406 -1.007812 50.730469 -0.972656 51.125 -1.210938 C 51.523438 -1.382812 51.769531 -1.746094 51.726562 -2.292969 L 50.503906 -17.527344 C 50.472656 -17.933594 50.238281 -18.261719 49.8125 -18.433594 C 49.394531 -18.535156 48.988281 -18.433594 48.738281 -18.140625 C 47.601562 -16.878906 46.210938 -16.21875 44.570312 -16.085938 L 24.484375 -14.476562 C 24.007812 -14.4375 23.585938 -14.542969 23.21875 -14.855469 C 22.855469 -15.101562 22.683594 -15.5 22.640625 -16.046875 L 21.820312 -26.296875 C 21.78125 -26.773438 21.882812 -27.195312 22.199219 -27.5625 C 22.519531 -27.863281 22.910156 -28.101562 23.390625 -28.140625 L 29.402344 -28.621094 C 31.039062 -28.753906 32.523438 -28.253906 33.84375 -27.257812 C 34.207031 -27.011719 34.546875 -27.039062 34.941406 -27.277344 C 35.335938 -27.515625 35.511719 -27.875 35.480469 -28.285156 L 34.261719 -43.449219 C 34.230469 -43.859375 34.003906 -44.117188 33.578125 -44.289062 C 33.152344 -44.460938 32.808594 -44.433594 32.484375 -44.203125 C 31.347656 -42.941406 29.957031 -42.28125 28.316406 -42.148438 L 22.304688 -41.667969 C 21.828125 -41.628906 21.40625 -41.730469 21.035156 -42.046875 C 20.671875 -42.292969 20.503906 -42.691406 20.460938 -43.238281 L 19.636719 -53.484375 C 19.601562 -53.964844 19.703125 -54.382812 20.019531 -54.753906 C 20.335938 -55.054688 20.730469 -55.292969 21.210938 -55.328125 L 41.292969 -56.941406 C 42.933594 -57.070312 44.417969 -56.570312 45.734375 -55.578125 C 46.035156 -55.257812 46.453125 -55.222656 46.84375 -55.460938 C 47.242188 -55.628906 47.421875 -55.988281 47.382812 -56.464844 L 46.15625 -71.769531 C 46.125 -72.179688 45.824219 -72.5 45.394531 -72.671875 C 44.976562 -72.773438 44.570312 -72.671875 44.25 -72.371094 Z M 44.25 -72.371094 "/></g></g></g></svg>